<mxfile host="app.diagrams.net" modified="2024-03-24T12:48:27.952Z" agent="Mozilla/5.0 (Windows NT 10.0; Win64; x64) AppleWebKit/537.36 (KHTML, like Gecko) Chrome/123.0.0.0 Safari/537.36" version="24.0.8" etag="0bqi9NtfvlnP0rxTx3eS" type="github">
  <diagram name="第 1 页" id="_KrCG0yqrii7u65LZFP5">
    <mxGraphModel>
      <root>
        <mxCell id="0" />
        <mxCell id="1" parent="0" />
      </root>
    </mxGraphModel>
  </diagram>
</mxfile>
